<!DOCTYPE svg PUBLIC "-//W3C//DTD SVG 1.1//EN" "http://www.w3.org/Graphics/SVG/1.1/DTD/svg11.dtd">
<!-- Uploaded to: SVG Repo, www.svgrepo.com, Transformed by: SVG Repo Mixer Tools -->
<svg height="800px" width="800px" version="1.1" id="Layer_1" xmlns="http://www.w3.org/2000/svg" xmlns:xlink="http://www.w3.org/1999/xlink" viewBox="0 0 512 512" xml:space="preserve" fill="#000000">
<g id="SVGRepo_bgCarrier" stroke-width="0"/>
<g id="SVGRepo_tracerCarrier" stroke-linecap="round" stroke-linejoin="round"/>
<g id="SVGRepo_iconCarrier"> <path style="fill:#FFE49C;" d="M472.178,477.38H39.822C17.864,477.38,0,459.515,0,437.557V136.772 c0-9.425,7.641-17.067,17.067-17.067h477.867c9.425,0,17.067,7.641,17.067,17.067v300.785 C512,459.515,494.136,477.38,472.178,477.38z"/> <path style="fill:#FFD155;" d="M494.933,119.706H256.001V477.38h216.177c21.958,0,39.822-17.864,39.822-39.822V136.772 C512,127.347,504.359,119.706,494.933,119.706z"/> <g> <path style="fill:#8DC3E9;" d="M81.581,351.512l-19.855-61.278c-6.952-21.454,25.511-31.997,32.471-10.521l8.681,26.79l5.392-8.476 c6.695-10.521,22.095-10.537,28.801,0l5.393,8.478l8.681-26.791c6.953-21.454,39.431-10.955,32.471,10.522l-19.857,61.278 c-4.446,13.72-22.903,16.051-30.636,3.9l-10.454-16.432l-10.454,16.432C104.453,367.613,86.021,365.213,81.581,351.512z"/> <path style="fill:#8DC3E9;" d="M266.454,355.412L256,338.98l-10.454,16.432c-7.743,12.169-26.196,9.801-30.636-3.9l-19.855-61.278 c-6.952-21.454,25.515-31.998,32.471-10.521l8.681,26.79l5.392-8.476c6.696-10.521,22.095-10.537,28.801,0l5.392,8.476l8.681-26.79 c6.952-21.454,39.431-10.956,32.471,10.521l-19.855,61.278C292.649,365.212,274.217,367.614,266.454,355.412z"/> <path style="fill:#8DC3E9;" d="M512,153.839H0V74.443C0,52.449,17.829,34.62,39.822,34.62h432.356 C494.171,34.62,512,52.449,512,74.443V153.839z"/> </g> <g> <circle style="fill:#FFE49C;" cx="71.805" cy="94.231" r="12.836"/> <circle style="fill:#FFE49C;" cx="112.959" cy="94.231" r="12.836"/> <circle style="fill:#FFE49C;" cx="154.112" cy="94.231" r="12.836"/> </g> <g> <path style="fill:#48AEE2;" d="M512,74.443c0-21.993-17.829-39.822-39.822-39.822H256.001v119.219H512V74.443z"/> <path style="fill:#48AEE2;" d="M284.473,279.711l-8.681,26.79l-5.392-8.476c-3.352-5.267-8.876-7.897-14.4-7.896v48.854 l10.453,16.431c7.763,12.202,26.196,9.8,30.636-3.9l19.855-61.278C323.904,268.757,291.425,258.257,284.473,279.711z"/> <path style="fill:#48AEE2;" d="M399.783,355.412l-10.454-16.432l-10.454,16.432c-7.741,12.167-26.195,9.802-30.636-3.9 l-19.856-61.278c-6.952-21.454,25.511-31.998,32.471-10.522l8.681,26.791l5.393-8.478c6.696-10.521,22.095-10.537,28.801,0 l5.392,8.476l8.681-26.79c6.952-21.454,39.431-10.956,32.471,10.521l-19.855,61.278 C425.979,365.212,407.546,367.614,399.783,355.412z"/> </g> </g>
</svg>